<svg width="1331" height="245" viewBox="0 0 1331 245" fill="none" xmlns="http://www.w3.org/2000/svg">
<path d="M154.217 222.921L0.25 236.181V17.9047L155.616 5.55333C166.52 4.68647 177.476 4.71674 188.376 5.64384L332.729 17.9229L332.731 17.9231L499.981 30.4573L499.995 30.4584L500.009 30.4579L684.009 23.621L684.017 23.6207L684.024 23.62L826.289 9.70299C841.08 8.25606 855.958 7.91114 870.8 8.67108L994.039 14.9811C1004.34 15.5083 1014.66 15.2396 1024.91 14.1773L1147.26 1.50367C1161.71 0.00668168 1176.28 0.0907801 1190.71 1.75447L1330.75 17.8966V235.036L1189.02 219.573C1175.71 218.121 1162.29 218.007 1148.95 219.234L1024.49 230.684C1014.51 231.602 1004.47 231.768 994.46 231.179L863.292 223.459C852.777 222.84 842.229 223.052 831.748 224.092L690.991 238.065L690.975 238.066L500.002 244.75L332.773 236.205L332.763 236.204L189.775 223.028C177.949 221.938 166.049 221.902 154.217 222.921Z" fill="#E9F1FF" stroke="white" stroke-width="0.5"/>
</svg>
